<svg width="473" height="66" xmlns="http://www.w3.org/2000/svg">

 <g>
  <title>background</title>
  <rect fill="none" id="canvas_background" height="68" width="475" y="-1" x="-1"/>
 </g>
 <g>
  <title>Layer 1</title>
  <path id="svg_4" fill="#e36689" d="m162.135001,68.001l22.76,22.757l22.76,-22.756l-45.52,-0.002l0,0.001z"/>
  <path id="svg_5" fill="#92c7e8" d="m292.983001,68.001l22.76,22.757l22.76,-22.756l-45.52,-0.002l0,0.001z"/>
  <path id="svg_6" fill="#e36689" d="m227.557001,68.001l22.762,22.757l22.755,-22.756l-45.518,-0.002l0.001,0.001z"/>
  <path stroke="null" id="svg_7" fill="#92c7e8" d="m358.405001,68.001l22.762,22.757l22.757,-22.756l-45.52,-0.002l0.001,0.001zm-98.135,32.712l45.518,0l-22.76,-22.757l-22.758,22.757z"/>
  <path id="svg_9" fill="#92c7e8" d="m325.697001,100.713l45.512,0l-22.76,-22.757l-22.753,22.756l0.001,0.001z"/>
  <path id="svg_10" fill="#e36689" d="m194.850001,100.713l45.51,0l-22.75,-22.757l-22.76,22.756l0,0.001z"/>
  <path id="svg_11" fill="#fbba6d" d="m64.000001,100.713l45.515,0l-22.76,-22.757l-22.755,22.757z"/>
  <path id="svg_12" fill="#e36689" d="m129.425001,100.713l45.515,0l-22.757,-22.757l-22.758,22.756l0,0.001z"/>
  <path id="svg_14" fill="#fbba6d" d="m175.230001,34.001l-22.76,22.757l-22.76,-22.755l45.517,-0.002l0.003,0zm-110.94,0l22.756,22.757l22.757,-22.755l-45.512,-0.002l-0.001,0z"/>
  <path id="svg_15" fill="#e36689" d="m195.135001,34.001l22.76,22.757l22.76,-22.756l-45.52,-0.002l0,0.001z"/>
  <path id="svg_16" fill="#92c7e8" d="m325.983001,34.001l22.76,22.757l22.76,-22.756l-45.52,-0.002l0,0.001z"/>
  <path id="svg_17" fill="#e36689" d="m260.557001,34.001l22.762,22.757l22.755,-22.756l-45.518,-0.002l0.001,0.001z"/>
  <path stroke="null" id="svg_18" fill="#92c7e8" d="m391.405001,36.001l22.762,22.757l22.757,-22.756l-45.52,-0.002l0.001,0.001zm-98.135,32.712l45.518,0l-22.76,-22.757l-22.758,22.757z"/>
  <path id="svg_20" fill="#92c7e8" d="m358.697001,68.713l45.512,0l-22.76,-22.757l-22.753,22.756l0.001,0.001z"/>
  <path id="svg_21" fill="#e36689" d="m227.850001,68.713l45.51,0l-22.75,-22.757l-22.76,22.756l0,0.001z"/>
  <path id="svg_22" fill="#fbba6d" d="m97.000001,68.713l45.515,0l-22.76,-22.757l-22.755,22.757z"/>
  <path id="svg_23" fill="#e36689" d="m162.425001,68.713l45.515,0l-22.757,-22.757l-22.758,22.756l0,0.001z"/>
  <path id="svg_25" fill="#e36689" d="m228.135001,1.001l22.76,22.757l22.76,-22.756l-45.52,-0.002l0,0.001z"/>
  <path id="svg_26" fill="#92c7e8" d="m358.983001,1.001l22.76,22.757l22.76,-22.756l-45.52,-0.002l0,0.001z"/>
  <path id="svg_27" fill="#e36689" d="m293.557001,1.001l22.762,22.757l22.755,-22.756l-45.518,-0.002l0.001,0.001z"/>
  <path stroke="null" id="svg_28" fill="#92c7e8" d="m424.405001,2.001l22.762,22.757l22.757,-22.756l-45.52,-0.002l0.001,0.001zm-98.135,32.712l45.518,0l-22.76,-22.757l-22.758,22.757z"/>
  <path id="svg_30" fill="#92c7e8" d="m391.697001,36.713l45.512,0l-22.76,-22.757l-22.753,22.756l0.001,0.001z"/>
  <path id="svg_31" fill="#e36689" d="m260.850001,34.713l45.51,0l-22.75,-22.757l-22.76,22.756l0,0.001z"/>
  <path id="svg_32" fill="#fbba6d" d="m130.000001,34.713l45.515,0l-22.76,-22.757l-22.755,22.757z"/>
  <path id="svg_33" fill="#e36689" d="m195.425001,34.713l45.515,0l-22.757,-22.757l-22.758,22.756l0,0.001z"/>
  <path id="svg_34" fill="#fbba6d" d="m208.230001,1.001l-22.76,22.757l-22.76,-22.755l45.517,-0.002l0.003,0zm-110.94,0l22.756,22.757l22.757,-22.755l-45.512,-0.002l-0.001,0z"/>
  <path id="svg_35" fill="#fbba6d" d="m143.230001,68.001l-22.76,22.757l-22.76,-22.755l45.517,-0.002l0.003,0zm-110.94,0l22.756,22.757l22.757,-22.755l-45.512,-0.002l-0.001,0z"/>
  <path id="svg_36" fill="#fbba6d" d="m65.000001,34.713l45.515,0l-22.76,-22.757l-22.755,22.757z"/>
  <path id="svg_37" fill="#fbba6d" d="m33.000001,68.713l45.515,0l-22.76,-21.757l-22.755,21.757z"/>
  <path id="svg_38" fill="#fbba6d" d="m1.000001,100.713l45.515,0l-22.76,-22.757l-22.755,22.757z"/>
 </g>
</svg>