<svg width="473" height="66" xmlns="http://www.w3.org/2000/svg">

 <g>
  <title>background</title>
  <rect fill="none" id="canvas_background" height="68" width="475" y="-1" x="-1"/>
 </g>
 <g>
  <title>Layer 1</title>
  <path id="svg_4" fill="#e36689" d="m148.709994,68.001l22.76,22.757l22.76,-22.756l-45.52,-0.002l0,0.001z"/>
  <path id="svg_5" fill="#92c7e8" d="m19.557994,68.001l22.76,22.757l22.76,-22.756l-45.52,-0.002l0,0.001z"/>
  <path id="svg_6" fill="#e36689" d="m214.131994,68.001l22.762,22.757l22.755,-22.756l-45.518,-0.002l0.001,0.001z"/>
  <path stroke="null" id="svg_7" fill="#92c7e8" d="m84.979994,68.001l22.762,22.757l22.757,-22.756l-45.52,-0.002l0.001,0.001zm-98.135,32.712l45.518,0l-22.76,-22.757l-22.758,22.757z"/>
  <path id="svg_9" fill="#92c7e8" d="m312.271994,100.713l45.512,0l-22.76,-22.757l-22.753,22.756l0.001,0.001z"/>
  <path id="svg_10" fill="#e36689" d="m181.424994,100.713l45.51,0l-22.75,-22.757l-22.76,22.756l0,0.001z"/>
  <path id="svg_11" fill="#fbba6d" d="m370.574994,100.713l45.515,0l-22.76,-22.757l-22.755,22.757z"/>
  <path id="svg_12" fill="#e36689" d="m435.999994,100.713l45.515,0l-22.757,-22.757l-22.758,22.756l0,0.001z"/>
  <path id="svg_14" fill="#fbba6d" d="m421.804994,34.001l-22.76,22.757l-22.76,-22.755l45.517,-0.002l0.003,0zm-110.94,0l22.756,22.757l22.757,-22.755l-45.512,-0.002l-0.001,0z"/>
  <path id="svg_15" fill="#e36689" d="m181.709994,34.001l22.76,22.757l22.76,-22.756l-45.52,-0.002l0,0.001z"/>
  <path id="svg_16" fill="#92c7e8" d="m52.557994,34.001l22.76,22.757l22.76,-22.756l-45.52,-0.002l0,0.001z"/>
  <path id="svg_17" fill="#e36689" d="m247.131994,34.001l22.762,22.757l22.755,-22.756l-45.518,-0.002l0.001,0.001z"/>
  <path stroke="null" id="svg_18" fill="#92c7e8" d="m150.979994,2.001l22.762,22.757l22.757,-22.756l-45.52,-0.002l0.001,0.001zm-98.135,32.712l45.518,0l-22.76,-22.757l-22.758,22.757z"/>
  <path id="svg_20" fill="#92c7e8" d="m85.271994,66.713l45.512,0l-22.76,-22.757l-22.753,22.756l0.001,0.001z"/>
  <path id="svg_21" fill="#e36689" d="m214.424994,68.713l45.51,0l-22.75,-22.757l-22.76,22.756l0,0.001z"/>
  <path id="svg_22" fill="#fbba6d" d="m405.574994,66.713l45.515,0l-22.76,-22.757l-22.755,22.757z"/>
  <path id="svg_23" fill="#e36689" d="m278.999994,64.713l45.515,0l-22.757,-22.757l-22.758,22.756l0,0.001z"/>
  <path id="svg_25" fill="#e36689" d="m214.709994,1.001l22.76,22.757l22.76,-22.756l-45.52,-0.002l0,0.001z"/>
  <path id="svg_26" fill="#92c7e8" d="m16.557994,1.001l22.76,22.757l22.76,-22.756l-45.52,-0.002l0,0.001z"/>
  <path stroke="null" id="svg_28" fill="#92c7e8" d="m114.979994,134.001l22.762,22.757l22.757,-22.756l-45.52,-0.002l0.001,0.001zm-98.135,32.712l45.518,0l-22.76,-22.757l-22.758,22.757z"/>
  <path id="svg_30" fill="#92c7e8" d="m118.271994,36.713l45.512,0l-22.76,-22.757l-22.753,22.756l0.001,0.001z"/>
  <path id="svg_31" fill="#e36689" d="m247.424994,34.713l45.51,0l-22.75,-22.757l-22.76,22.756l0,0.001z"/>
  <path id="svg_32" fill="#fbba6d" d="m376.574994,34.713l45.515,0l-22.76,-22.757l-22.755,22.757z"/>
  <path id="svg_33" fill="#e36689" d="m181.999994,34.713l45.515,0l-22.757,-22.757l-22.758,22.756l0,0.001z"/>
  <path id="svg_34" fill="#fbba6d" d="m389.804994,2.001l-22.76,22.757l-22.76,-22.755l45.517,-0.002l0.003,0zm-110.94,0l22.756,22.757l22.757,-22.755l-45.512,-0.002l-0.001,0z"/>
  <path id="svg_35" fill="#fbba6d" d="m449.804994,68.001l-22.76,22.757l-22.76,-22.755l45.517,-0.002l0.003,0zm-110.94,0l22.756,22.757l22.757,-22.755l-45.512,-0.002l-0.001,0z"/>
  <path id="svg_36" fill="#fbba6d" d="m311.574994,34.713l45.515,0l-22.76,-22.757l-22.755,22.757z"/>
  <path id="svg_37" fill="#fbba6d" d="m344.574994,64.713l45.515,0l-22.76,-21.757l-22.755,21.757z"/>
  <path id="svg_38" fill="#fbba6d" d="m307.574994,100.713l45.515,0l-22.76,-22.757l-22.755,22.757z"/>
  <path stroke="null" id="svg_41" fill="#92c7e8" d="m87.557994,3.001l22.76,22.757l22.76,-22.756l-45.52,-0.002l0,0.001z"/>
  <path id="svg_42" fill="#92c7e8" d="m149.271994,66.713l45.512,0l-22.76,-22.757l-22.753,22.756l0.001,0.001z"/>
  <path id="svg_43" fill="#92c7e8" d="m117.557994,36.001l22.76,22.757l22.76,-22.756l-45.52,-0.002l0,0.001z"/>
  <path id="svg_44" fill="#e36689" d="m151.709994,2.001l22.76,22.757l22.76,-22.756l-45.52,-0.002l0,0.001z"/>
 </g>
</svg>